<svg xmlns="http://www.w3.org/2000/svg" viewBox="0 0 54.72 55.3"><defs><style>.cls-1{fill:#fff;}</style></defs><title>card1Ativo 3</title><g id="Camada_2" data-name="Camada 2"><g id="Camada_1-2" data-name="Camada 1"><path class="cls-1" d="M9.61,34.29H9.36a9.52,9.52,0,0,1,.05-19,10.73,10.73,0,0,1,1.24.08L12,15.5a3.28,3.28,0,0,0,2.52-.7,3.33,3.33,0,0,0,1.22-2.31l.1-1.34a12.11,12.11,0,0,1,3.83-7.92A11.84,11.84,0,0,1,27.77,0a12.08,12.08,0,0,1,12,12.14q0,.4,0,.84l-.1,1.52A3.3,3.3,0,0,0,43.28,18l1.49-.16c.33,0,.66-.05,1-.05A8.54,8.54,0,0,1,54.54,26a8.55,8.55,0,0,1-8.75,8.24Z"/><path class="cls-1" d="M44.58,47a3,3,0,1,1,3-3A3,3,0,0,1,44.58,47Z"/><path class="cls-1" d="M52.37,55.3A2.35,2.35,0,1,1,54.72,53,2.36,2.36,0,0,1,52.37,55.3Z"/></g></g></svg>