<svg xmlns="http://www.w3.org/2000/svg" viewBox="0 0 56.14 52.25"><defs><style>.cls-1{fill:#fff;}</style></defs><title>card2Ativo 2</title><g id="Camada_2" data-name="Camada 2"><g id="Camada_1-2" data-name="Camada 1"><g id="_Grupo_" data-name="&lt;Grupo&gt;"><path class="cls-1" d="M34.46,15.44a27.73,27.73,0,0,1,6.48,7.46,39.51,39.51,0,0,1,3.91,9.16,1,1,0,0,0,1,.75H46l3.71-.53L44.44,43.21l-9.21-7.94,3.39-.72a1,1,0,0,0,.82-1.19A29.63,29.63,0,0,0,33.81,20,36.48,36.48,0,0,0,19.52,9.13c-1.11-.48-2.15-.89-3.07-1.22C24.11,9.42,30,11.9,34.46,15.44Z"/></g><g id="_Grupo_2" data-name="&lt;Grupo&gt;"><path class="cls-1" d="M56.14,50.8a1.46,1.46,0,0,0-1.46-1.46H2.91V1.46A1.46,1.46,0,1,0,0,1.46H0V50.8a1.5,1.5,0,0,0,.43,1,1.47,1.47,0,0,0,1,.42H54.68A1.46,1.46,0,0,0,56.14,50.8Z"/></g></g></g></svg>