<svg xmlns="http://www.w3.org/2000/svg" viewBox="0 0 57.39 48.24"><defs><style>.cls-1{fill:#55797f;}</style></defs><title>card4Ativo 5</title><g id="Camada_2" data-name="Camada 2"><g id="Camada_1-2" data-name="Camada 1"><g id="_Grupo_" data-name="&lt;Grupo&gt;"><path class="cls-1" d="M29.39.13a21.57,21.57,0,0,1,7.77.55A31,31,0,0,1,44.44,3.6a.8.8,0,0,0,1-.14l.08-.09L47.26,1l3.16,9-9.55.71,1.49-2.29a.82.82,0,0,0-.21-1.12A23.38,23.38,0,0,0,31.57,3a28.62,28.62,0,0,0-14,1.9c-.88.34-1.69.7-2.39,1C20.27,2.54,25,.63,29.39.13Z"/></g><g id="_Grupo_2" data-name="&lt;Grupo&gt;"><path class="cls-1" d="M54.38,33.84A21.56,21.56,0,0,1,49.63,40a31.14,31.14,0,0,1-6.46,4.45.82.82,0,0,0-.43.89l0,.11,1,2.78-9.27-2.36,4.7-8.35L40.27,40a.84.84,0,0,0,1,.45,23.34,23.34,0,0,0,9.43-6.44,28.59,28.59,0,0,0,6.17-12.73c.21-.92.36-1.79.47-2.56C57.42,24.91,56.42,29.87,54.38,33.84Z"/></g><g id="_Grupo_3" data-name="&lt;Grupo&gt;"><path class="cls-1" d="M9.89,37a21.56,21.56,0,0,1-4.17-6.57,31.44,31.44,0,0,1-2-7.6.83.83,0,0,0-.69-.7H3L0,22.14l5.39-7.9,6.24,7.27-2.73.16a.83.83,0,0,0-.78.83,23.43,23.43,0,0,0,2.82,11.07,28.67,28.67,0,0,0,9.84,10.16c.8.51,1.57.94,2.25,1.31C17.24,43,12.92,40.33,9.89,37Z"/></g></g></g></svg>