<svg xmlns="http://www.w3.org/2000/svg" viewBox="0 0 294.72 68.21"><defs><style>.cls-1{fill:#3e8685;}</style></defs><title>figura1Ativo 1</title><g id="Camada_2" data-name="Camada 2"><g id="Camada_1-2" data-name="Camada 1"><path class="cls-1" d="M287,2.72a36.28,36.28,0,0,0-5.91,7.5,1,1,0,0,0-.57.11,163.06,163.06,0,0,1-23,9.39c2.84-2.24,6.67-5.73,7.86-8.06,1.81-3.56-.78-7.35-5.3-4.36-3.64,2.4-5.1,10.37-5.54,13.4a249.3,249.3,0,0,1-27.65,7.11c12.49-6.91,20.41-21.48,11.86-19.67-9.76,2.07-14.39,16.19-15.56,20.37a265,265,0,0,1-28.46,3.6c3.12-1.81,9.53-5.56,14.52-8.73,6.87-4.37,6.84-15.5-3.56-9.62C196.93,18.69,193.8,29,193,32.23a265.9,265.9,0,0,1-26.79.42c-2.18-.07-4.36-.18-6.53-.31,3-1.74,12.32-7.14,19.36-11.62,8.52-5.41,8.48-19.21-4.41-11.92-11.42,6.46-15.12,20.39-15.81,23.49a273,273,0,0,1-31.46-3.8c2.75-1.18,8.65-3.65,16.36-6.57C158.25,16.43,160,11.32,160.1,8.3s-3-11.41-14.66-3.68-18.81,20.46-20.36,23.45c-11.49-2.16-9.48-1.14-20.77-4.77a1,1,0,0,0-.87.13,1,1,0,0,0-.39.52,1,1,0,0,0,.65,1.26c11.11,3.56,8.9,2.51,20.2,4.68-.1.89-1.35,13.77,4.41,25.9,6,12.58,13.8,14,17,11.23s3.17-6.3-2.89-14.58c-5.83-7.95-17.52-21.5-18.42-22.54a275.25,275.25,0,0,0,33.92,4.33c-.11,1.31-.52,10.71,8,22.94,9.21,13.19,16.78,7.42,17,4.41a8,8,0,0,0-2.41-7.23C178.36,52,163.4,36.46,158.42,34.27c2.6.16,5.2.3,7.79.38a266.8,266.8,0,0,0,26.84-.42c0,1.07.38,5.37,5.31,11.06,5.72,6.6,18.26,11.36,19.61,8s-6.36-12.6-24.32-19.11a268.29,268.29,0,0,0,30-3.73c.74,1.41,5.1,9.24,12.4,13.23,8.05,4.39,12.41,1.31,10.06-2.43s-15-9.08-22-10.89l2.72-.51a249.35,249.35,0,0,0,28.11-7.19c.67.78,5.5,6.23,11.44,6.57,6.41.37,7.24-2.12,5.92-4S266,20,256.91,22A182.91,182.91,0,0,0,280,12.84a1.12,1.12,0,0,0,0,.32s11.54-2,14.17-8.07S289.28.75,287,2.72Z"/><path class="cls-1" d="M89.3.68c-1.9,1.62-1.93,3.73,1.62,8.69,3.25,4.55,9.61,12.13,10.67,13.38l.22-.46a31.58,31.58,0,0,0-2.5-14.81C95.84,0,91.2-.94,89.3.68Z"/><path class="cls-1" d="M77,6.4C71.58-1.51,67,1.87,66.86,3.66A4.77,4.77,0,0,0,68.25,8c1.27,1.39,10.06,10.75,13,12.09-1.55-.12-3.09-.21-4.64-.28-5.32-.25-10.65-.22-16,.06,0-.63-.18-3.19-3.08-6.61-3.35-4-10.78-6.88-11.6-4.9s3.7,7.54,14.33,11.53a158.75,158.75,0,0,0-17.85,2c-.43-.85-3-5.53-7.29-8-4.75-2.67-7.37-.87-6,1.37s8.85,5.5,13,6.62l-1.63.29A149.79,149.79,0,0,0,23.81,26.3c-.39-.47-3.23-3.74-6.76-4-3.81-.26-4.32,1.21-3.55,2.36s3.71,3.16,9.11,2A107.11,107.11,0,0,0,8.83,32a.6.6,0,0,0,0-.19S2,32.91.34,36.49,3.22,39.1,4.59,38a22,22,0,0,0,3.57-4.42.6.6,0,0,0,.34-.07A97.82,97.82,0,0,1,22.26,28c-1.71,1.31-4,3.36-4.73,4.74-1.1,2.1.41,4.37,3.12,2.63,2.18-1.41,3.1-6.14,3.38-7.93a147.81,147.81,0,0,1,16.49-4c-7.47,4-12.28,12.63-7.18,11.61,5.82-1.16,8.66-9.52,9.39-12a159.54,159.54,0,0,1,17-1.95C57.81,22.16,54,24.34,51,26.2c-4.11,2.54-4.17,9.16,2.05,5.74,5.22-2.87,7.15-9,7.64-10.9C66,20.76,71.29,20.73,76.6,21c1.3.05,2.59.14,3.88.23-1.8,1-7.37,4.16-11.59,6.77-5.1,3.16-5.17,11.37,2.54,7.12,6.84-3.76,9.13-12,9.56-13.86a165.2,165.2,0,0,1,18.69,2.47c-1.65.69-5.18,2.12-9.78,3.8-8.67,3.17-9.75,6.19-9.82,8s1.69,6.8,8.69,2.29c6.34-4.1,10.42-10.55,11.87-13.09l.89-1.83a163.3,163.3,0,0,0-20-2.78C81.65,19.32,82,13.73,77,6.4Z"/></g></g></svg>