<svg xmlns="http://www.w3.org/2000/svg" viewBox="0 0 259.17 59.87"><defs><style>.cls-1{fill:#e5fbc4;}</style></defs><title>folhina2Ativo 7</title><g id="Camada_2" data-name="Camada 2"><g id="Camada_1-2" data-name="Camada 1"><path class="cls-1" d="M6.79,57.48A31.9,31.9,0,0,0,12,50.9a1,1,0,0,0,.51-.1,143.76,143.76,0,0,1,20.25-8.25c-2.5,2-5.87,5-6.91,7.08-1.59,3.13.68,6.45,4.65,3.83,3.2-2.11,4.49-9.1,4.87-11.76a218.41,218.41,0,0,1,24.32-6.24c-11,6.06-18,18.85-10.43,17.26,8.59-1.82,12.65-14.2,13.68-17.87a232.58,232.58,0,0,1,25-3.17c-2.75,1.59-8.38,4.88-12.77,7.67-6,3.83-6,13.6,3.13,8.44C86,43.46,88.74,34.39,89.43,31.58A234.21,234.21,0,0,1,113,31.21c1.91.06,3.83.16,5.74.27-2.65,1.53-10.83,6.27-17,10.2-7.49,4.75-7.46,16.86,3.88,10.46,10-5.66,13.29-17.9,13.9-20.61a240.42,240.42,0,0,1,27.66,3.33c-2.42,1-7.61,3.2-14.38,5.77-12.77,4.82-14.33,9.3-14.39,11.95s2.62,10,12.89,3.23,16.54-18,17.9-20.58c10.1,1.9,8.34,1,18.27,4.18a.87.87,0,0,0,1.1-.57.87.87,0,0,0-.57-1.1c-9.76-3.13-7.82-2.21-17.76-4.1.09-.79,1.18-12.09-3.88-22.74C141.08-.14,134.2-1.38,131.42,1s-2.78,5.53,2.54,12.8c5.12,7,15.41,18.87,16.2,19.79a244.05,244.05,0,0,0-29.83-3.81c.1-1.15.46-9.4-7-20.13-8.1-11.58-14.75-6.51-15-3.87a7,7,0,0,0,2.13,6.35c1.9,2,15.06,15.69,19.43,17.62-2.28-.14-4.56-.26-6.85-.34q-11.82-.4-23.6.37c0-.94-.33-4.71-4.67-9.7-5-5.79-16-10-17.24-7s5.59,11.05,21.39,16.77a234.77,234.77,0,0,0-26.37,3.28C61.86,31.89,58,25,51.6,21.52c-7.07-3.85-10.91-1.15-8.84,2.13s13.19,8,19.37,9.56l-2.4.45A220.6,220.6,0,0,0,35,40c-.59-.69-4.83-5.47-10.06-5.77-5.64-.32-6.36,1.86-5.21,3.55s5.54,4.6,13.51,2.79A161.09,161.09,0,0,0,13,48.6a1.24,1.24,0,0,0,0-.28S2.81,50.1.49,55.4,4.78,59.21,6.79,57.48Z"/><path class="cls-1" d="M180.64,59.27c1.67-1.43,1.69-3.27-1.43-7.63-2.85-4-8.45-10.64-9.38-11.74l-.19.4a27.6,27.6,0,0,0,2.2,13C174.88,59.9,179,60.69,180.64,59.27Z"/><path class="cls-1" d="M191.48,54.25c4.74,6.94,8.73,4,8.89,2.4a4.17,4.17,0,0,0-1.22-3.79c-1.12-1.22-8.85-9.43-11.44-10.61,1.36.1,2.72.19,4.07.25q7,.31,14-.06c0,.56.16,2.8,2.71,5.8,2.95,3.48,9.48,6,10.2,4.3s-3.25-6.61-12.6-10.12a137.1,137.1,0,0,0,15.7-1.77,17.84,17.84,0,0,0,6.41,7c4.18,2.35,6.48.77,5.27-1.2s-7.79-4.83-11.45-5.82l1.43-.25a129,129,0,0,0,14.74-3.58c.34.41,2.83,3.28,5.94,3.5,3.35.23,3.8-1.06,3.12-2.08s-3.26-2.77-8-1.75A95,95,0,0,0,251.4,31.8a1,1,0,0,0,0,.17s6-1,7.46-4.13-2.52-2.29-3.73-1.28A19.15,19.15,0,0,0,252,30.44a.54.54,0,0,0-.3.06,87.05,87.05,0,0,1-12.1,4.76,17.76,17.76,0,0,0,4.16-4.16c1-1.85-.36-3.84-2.74-2.31-1.92,1.23-2.73,5.38-3,7a129.86,129.86,0,0,1-14.5,3.54c6.57-3.53,10.8-11.08,6.32-10.19-5.12,1-7.62,8.36-8.26,10.54a139.76,139.76,0,0,1-14.9,1.7c1.64-.92,5-2.84,7.64-4.47,3.62-2.23,3.67-8-1.8-5-4.59,2.53-6.29,7.9-6.72,9.57-4.65.25-9.33.27-14,.06l-3.41-.21c1.59-.88,6.48-3.65,10.19-5.94,4.49-2.78,4.55-10-2.23-6.25-6,3.3-8,10.55-8.41,12.16a141.33,141.33,0,0,1-16.43-2.17c1.45-.6,4.55-1.85,8.6-3.33,7.62-2.78,8.58-5.43,8.63-7s-1.48-6-7.64-2c-5.57,3.59-9.16,9.25-10.44,11.49l-.78,1.6a143.78,143.78,0,0,0,17.55,2.44C187.36,42.91,187.09,47.82,191.48,54.25Z"/></g></g></svg>